<svg width="28" height="28" viewBox="0 0 28 28" fill="none" xmlns="http://www.w3.org/2000/svg">
<path fill-rule="evenodd" clip-rule="evenodd" d="M8 14.75H8.5V26H4C2.89543 26 2 25.1046 2 24V4C2 2.89543 2.89543 2 4 2H7V13.75C7 14.3023 7.44772 14.75 8 14.75ZM4 0C1.79086 0 0 1.79086 0 4V24C0 26.2091 1.79086 28 4 28H8.5H8.75H10.5H10.75H17.25H17.5H19.25H19.5H24C26.2091 28 28 26.2091 28 24V4C28 1.79086 26.2091 0 24 0H19.5H19.25H17.5H17.25H10.75H10.5H8.75H8.5H4ZM15.75 2H12.25V13.75C12.25 14.3023 11.8023 14.75 11.25 14.75H10.75V26H17.25V14.75H16.75C16.1977 14.75 15.75 14.3023 15.75 13.75V2ZM19.5 14.75H20C20.5523 14.75 21 14.3023 21 13.75V2H24C25.1046 2 26 2.89543 26 4V24C26 25.1046 25.1046 26 24 26H19.5V14.75Z" fill="#F5F4F3"/>
</svg>
