<svg width="26" height="26" viewBox="0 0 26 26" fill="none" xmlns="http://www.w3.org/2000/svg">
<path fill-rule="evenodd" clip-rule="evenodd" d="M26 12.6521C26 19.8318 20.1797 25.6521 13 25.6521C5.82031 25.6521 0 19.8318 0 12.6521C0 6.50488 4.2666 1.35425 10 0V2.6521H16V0C21.7334 1.35425 26 6.50488 26 12.6521ZM13 22.6521C14.1045 22.6521 15 21.7566 15 20.6521C15 19.5476 14.1045 18.6521 13 18.6521C11.8955 18.6521 11 19.5476 11 20.6521C11 21.7566 11.8955 22.6521 13 22.6521ZM21 18.6521C21 19.7566 20.1045 20.6521 19 20.6521C17.8955 20.6521 17 19.7566 17 18.6521C17 17.5476 17.8955 16.6521 19 16.6521C20.1045 16.6521 21 17.5476 21 18.6521ZM21 14.6521C22.1046 14.6521 23 13.7567 23 12.6521C23 11.5475 22.1046 10.6521 21 10.6521C19.8954 10.6521 19 11.5475 19 12.6521C19 13.7567 19.8954 14.6521 21 14.6521ZM7 12.6521C7 13.7567 6.10457 14.6521 5 14.6521C3.89543 14.6521 3 13.7567 3 12.6521C3 11.5475 3.89543 10.6521 5 10.6521C6.10457 10.6521 7 11.5475 7 12.6521ZM7 20.6521C8.10457 20.6521 9 19.7567 9 18.6521C9 17.5475 8.10457 16.6521 7 16.6521C5.89543 16.6521 5 17.5475 5 18.6521C5 19.7567 5.89543 20.6521 7 20.6521Z" fill="white"/>
</svg>
